<svg xmlns="http://www.w3.org/2000/svg" viewBox="0 0 320 240" data-plano="way/566195233">
<rect class="plano-fondo" width="320" height="240"/>
<path class="plano-plaza" d="M101.6 133.8L117.6 114.6L118.2 106.8L120.4 104.4L167.1 136.6L164.9 139.3L128.1 112.3L123.1 114.4L102 137.7L101.6 133.8ZM8.8 169.1L29.9 147.3L34.4 140.8L0.5 157.4L8.8 169.1ZM102 137.7L106.5 150.6L147.8 126.3L128.1 112.3L123.1 114.4L102 137.7ZM114.5 165.4L133 182.1L152.9 165.2L149.9 162.4L165.7 144.9L163.9 143.2L149.6 151.6L147.2 147.8L114.5 165.4Z"/>
<path class="plano-calle" d="M200 6L224.5 72.3L230.5 86.2M-2 11.9L21.7 37.1L44.6 63.2L53.3 76.5L77.4 105.2M0.5 157.4L36.7 139.6L77.4 105.2M259.1 242L239.7 225.5M230.5 86.2L322 50M231.1 218.2L247.9 195.5L261 180.7L292.2 153.7M52.7 125.4L59.8 140.4L70 156L98.5 186.6L108.4 195.2L115.3 217.5L121.3 228.3L130.5 242M180 11L167.5 -2M102 137.7L123.1 114.4L128.1 112.3L164.9 139.3M144 35.6L161.9 -2M164.9 139.3L188.1 104L195.7 94.3L203.8 86.2L217.6 75.5L224.5 72.3M102.3 242L46 198.7L34.5 187.3L8.8 169.1L0.5 157.4L-2 155.4M239.7 225.5L218.5 206L209.8 195.1L201.8 183.5L192.5 164.2L186.7 155.2L167.8 135.7M239.7 225.5L227.3 242M164.9 139.3L163.9 143.2L154.6 152.9L127.1 176.5M292.2 153.7L322 130.7M292.2 153.7L308.9 175.5L322 195.2M230.5 86.2L237.4 97.1L254.5 116.3L280.6 140.4L292.2 153.7M77.4 105.2L98.6 87.7L117.5 62.7L144 35.6L180 11L227.7 -2M77.4 105.2L97.3 125.4L101.6 133.8L102 137.7L109 157.9L112.5 163.6L127.1 176.5M127.1 176.5L194.4 242M119.6 169.6L103.3 190.5M-2 99.8L5.3 112.6M50.6 72.4L72 58L72.9 56.4L72.2 49.9L63.9 36.9L69.5 -2M68.9 2.1L75.1 -2"/>
<path class="plano-hito" d="M246.1 125L253.7 133.1L262.3 123.4L254.5 116.3L246.1 125ZM106.5 150.6L147.8 126.3L164.9 139.3L163.9 143.2L149.6 151.6L147.2 147.8L114.5 165.4L112.5 163.6L109 157.9L106.5 150.6Z"/>
<path class="plano-ayto" d="M143.1 119.8L150.5 109.1L160 116.3L165.9 109.4L178.1 119.7L167.1 136.6L143.1 119.8Z"/>
<path class="plano-escala" d="M10 228h94.1M10 225v6M104.1 225v6"/>
<text class="plano-rotulo plano-rotulo--escala" x="108.1" y="228" dy=".35em">100 m</text>
<text class="plano-rotulo" x="203.8" y="180.6" transform="rotate(51.3 203.8 180.6)" text-anchor="middle" dy=".35em">C/ Cura</text>
<text class="plano-rotulo" x="128.7" y="58.1" transform="rotate(-42.5 128.7 58.1)" text-anchor="middle" dy=".35em">C/ Coso</text>
<text class="plano-rotulo" x="261.7" y="186" transform="rotate(-46.5 261.7 186)" text-anchor="middle" dy=".35em">C/ Mercado</text>
<text class="plano-rotulo plano-rotulo--ayto" x="182.1" y="120" text-anchor="start" dy=".35em">Ayuntamiento</text>
</svg>
